# xmcd CD database file
#
# Track frame offsets:
#	150
#	19175
#	43571
#	63280
#
# Disc length: 1085 seconds
#
# Revision: 0
# Processed by: cddbd v1.5.1PL0 Copyright (c) Steve Scherf et al.
# Submitted via: CDex 1.51
#
DISCID=2a043b04
DTITLE=10,000 Promises. - 雨が上がり僕の心は
DYEAR=2004
DGENRE=JPop
TTITLE0=雨が上がり僕の心は
TTITLE1=Midnight Flight〜ひとりぼっちのクリスマスイブ〜
TTITLE2=KISS ON MY LIST
TTITLE3=Precious Days
EXTD=YEAR: 2004
EXTT0=
EXTT1=
EXTT2=
EXTT3=
PLAYORDER=
